<?xml version="1.0" encoding="iso-8859-1"?>
<!-- Generator: Adobe Illustrator 19.0.0, SVG Export Plug-In . SVG Version: 6.00 Build 0)  -->
<svg version="1.1" id="Capa_1" xmlns="http://www.w3.org/2000/svg" xmlns:xlink="http://www.w3.org/1999/xlink" x="0px" y="0px"
	 viewBox="0 0 512.001 512.001" style="enable-background:new 0 0 512.001 512.001;" xml:space="preserve">
<path style="fill:#F6B778;" d="M501.836,234.417c7.52-29.524-0.869-60.835-22.144-82.642l0,0
	c-4.581-4.696-8.595-9.877-11.992-15.429c-28.074,15.027-64.543-3.095-67.361-36.949l0,0l0,0
	c-32.971-2.744-51.014-37.405-38.054-65.145c-0.695-0.636-1.382-1.282-2.058-1.942l0,0c-21.809-21.275-53.118-29.664-82.642-22.144
	l0,0c-14.162,3.608-29.004,3.608-43.167,0l0,0c-29.524-7.52-60.834,0.869-82.642,22.144l0,0
	c-10.462,10.206-23.314,17.626-37.383,21.584l0,0c-29.331,8.248-52.252,31.168-60.502,60.497l0,0
	c-3.958,14.069-11.378,26.922-21.584,37.384l0,0c-21.275,21.809-29.664,53.118-22.144,82.642l0,0
	c3.608,14.162,3.608,29.004,0,43.166l0,0c-7.52,29.524,0.869,60.835,22.144,82.642l0,0c10.206,10.462,17.626,23.314,21.584,37.384
	l0,0c8.249,29.329,31.169,52.249,60.499,60.499l0,0c14.069,3.958,26.922,11.378,37.383,21.584l0,0
	c21.809,21.275,53.118,29.664,82.642,22.144l0,0c14.162-3.608,29.004-3.608,43.167,0l0,0c29.524,7.52,60.834-0.869,82.642-22.144
	l0,0c10.462-10.206,23.314-17.626,37.384-21.584l0,0c29.329-8.249,52.249-31.169,60.499-60.499l0,0
	c3.958-14.069,11.378-26.922,21.584-37.384l0,0c21.275-21.809,29.664-53.118,22.144-82.642l0,0
	C498.229,263.422,498.229,248.58,501.836,234.417L501.836,234.417z"/>
<path style="fill:#DDA46C;" d="M191.782,479.692L191.782,479.692c-10.462-10.206-23.314-17.626-37.383-21.584l0,0
	c-29.329-8.249-52.249-31.17-60.499-60.499l0,0c-3.958-14.068-11.378-26.922-21.584-37.383l0,0
	c-21.275-21.809-29.664-53.118-22.144-82.642l0,0c3.608-14.162,3.608-29.004,0-43.166l0,0c-7.52-29.524,0.869-60.835,22.144-82.642
	l0,0c10.206-10.462,17.626-23.315,21.584-37.383l0,0c8.249-29.328,31.169-52.249,60.499-60.499l0,0
	c14.069-3.958,26.922-11.378,37.383-21.584l0,0c11.566-11.284,25.805-18.941,41.033-22.525c-29.051-6.821-59.625,1.633-81.04,22.525
	l0,0c-10.462,10.206-23.314,17.626-37.383,21.584l0,0c-29.329,8.248-52.25,31.169-60.5,60.497l0,0
	c-3.958,14.068-11.378,26.922-21.584,37.384l0,0c-21.275,21.809-29.664,53.118-22.144,82.642l0,0
	c3.608,14.162,3.608,29.004,0,43.166l0,0c-7.52,29.524,0.869,60.835,22.144,82.642l0,0c10.206,10.461,17.626,23.315,21.584,37.384
	l0,0c8.249,29.329,31.169,52.249,60.499,60.499l0,0c14.069,3.958,26.922,11.377,37.383,21.584l0,0
	c21.415,20.891,51.99,29.346,81.04,22.525C217.587,498.633,203.348,490.975,191.782,479.692z"/>
<g>
	<ellipse style="fill:#8B6C52;" cx="194.244" cy="98.538" rx="33.948" ry="26.095"/>
	<ellipse style="fill:#8B6C52;" cx="125.412" cy="341.1" rx="33.948" ry="26.095"/>
	<ellipse style="fill:#8B6C52;" cx="360.903" cy="383.137" rx="33.948" ry="26.095"/>
</g>
<g>
	<ellipse style="fill:#654D3B;" cx="228.73" cy="409.222" rx="23.729" ry="18.236"/>
	<ellipse style="fill:#654D3B;" cx="326.337" cy="135.734" rx="23.729" ry="18.236"/>
	<ellipse style="fill:#654D3B;" cx="91.456" cy="204.896" rx="23.729" ry="18.236"/>
	<ellipse style="fill:#654D3B;" cx="432.835" cy="270.148" rx="23.729" ry="18.236"/>
</g>
<path d="M370.887,72.977c-6.385-11.015-7.06-24.305-1.806-35.551c1.388-2.972,0.685-6.5-1.735-8.713
	c-0.636-0.581-1.263-1.171-1.88-1.774c-23.516-22.94-57.902-32.152-89.733-24.044c-12.909,3.289-26.555,3.289-39.464,0
	c-31.832-8.108-66.217,1.104-89.733,24.044C137,36.241,125.182,43.064,112.36,46.672c-31.623,8.895-56.794,34.065-65.688,65.688
	c-3.607,12.823-10.43,24.641-19.732,34.176C3.999,170.05-5.214,204.434,2.895,236.269c3.289,12.909,3.289,26.555,0,39.464
	c-8.108,31.835,1.104,66.217,24.044,89.733c9.302,9.536,16.126,21.354,19.732,34.176c8.895,31.624,34.066,56.794,65.688,65.688
	c12.823,3.607,24.641,10.43,34.176,19.732c17.871,17.434,42.016,26.94,66.554,26.939c7.748,0,15.54-0.948,23.18-2.895
	c12.908-3.289,26.554-3.289,39.464,0c7.641,1.946,15.43,2.895,23.179,2.895c24.535,0,48.682-9.506,66.554-26.939
	c9.536-9.302,21.354-16.126,34.176-19.732c31.624-8.895,56.794-34.065,65.688-65.688c3.607-12.823,10.43-24.641,19.732-34.177
	c22.939-23.515,32.152-57.898,24.044-89.733c-3.289-12.908-3.289-26.555,0-39.464c8.108-31.835-1.104-66.217-24.044-89.733
	c-4.153-4.257-7.841-9.002-10.963-14.105c-2.074-3.391-6.434-4.575-9.939-2.698c-11.303,6.049-24.933,5.917-36.462-0.354
	c-11.54-6.276-18.787-17.431-19.883-30.604c-0.304-3.652-3.202-6.549-6.853-6.853C388.212,90.86,377.25,83.954,370.887,72.977z
	 M420.529,142.558c13.912,7.567,30.08,8.661,44.437,3.25c2.831,3.976,5.963,7.728,9.357,11.207
	c19.314,19.798,27.072,48.749,20.245,75.553c-3.905,15.332-3.905,31.538,0,46.87c6.827,26.804-0.93,55.754-20.245,75.553
	c-11.048,11.325-19.151,25.361-23.435,40.59c-7.489,26.627-28.683,47.82-55.309,55.309c-15.23,4.284-29.265,12.388-40.59,23.435
	c-19.798,19.314-48.75,27.072-75.553,20.245c-7.666-1.952-15.551-2.929-23.435-2.929s-15.77,0.976-23.435,2.929
	c-26.806,6.828-55.755-0.93-75.553-20.245c-11.325-11.047-25.36-19.151-40.59-23.435c-26.627-7.488-47.819-28.682-55.309-55.309
	c-4.284-15.23-12.387-29.265-23.435-40.59c-19.315-19.798-27.072-48.749-20.245-75.553c3.905-15.332,3.905-31.538,0-46.87
	c-6.828-26.804,0.929-55.754,20.245-75.553c11.048-11.325,19.151-25.361,23.435-40.591c7.488-26.628,28.682-47.82,55.308-55.31
	c15.23-4.284,29.266-12.387,40.59-23.435c19.799-19.314,48.749-27.072,75.553-20.244c15.331,3.905,31.538,3.905,46.869,0
	c26.109-6.65,54.246,0.535,73.987,18.757c-4.98,14.485-3.415,30.681,4.486,44.31c7.837,13.521,20.669,22.603,35.783,25.539
	C396.713,121.697,406.264,134.798,420.529,142.558z"/>
<path d="M166.073,234.348c-4.143,0-7.501,3.358-7.501,7.501v16.275c0,4.143,3.359,7.501,7.501,7.501s7.501-3.359,7.501-7.501V241.85
	C173.574,237.706,170.216,234.348,166.073,234.348z"/>
<path d="M338.426,241.85v16.275c0,4.143,3.359,7.501,7.501,7.501c4.143,0,7.501-3.359,7.501-7.501V241.85
	c0-4.144-3.359-7.501-7.501-7.501C341.785,234.348,338.426,237.706,338.426,241.85z"/>
<path d="M288.207,252.44c-3.12-2.726-7.858-2.408-10.585,0.71c-5.278,6.038-13.159,9.501-21.623,9.501s-16.345-3.463-21.623-9.501
	c-2.726-3.12-7.465-3.438-10.585-0.711c-3.12,2.726-3.438,7.465-0.711,10.585c8.127,9.298,20.126,14.63,32.919,14.63
	c12.793,0,24.791-5.332,32.919-14.63C291.645,259.905,291.327,255.166,288.207,252.44z"/>
<path d="M235.693,98.538c0-18.522-18.594-33.591-41.45-33.591s-41.449,15.069-41.449,33.591s18.594,33.591,41.449,33.591
	S235.693,117.06,235.693,98.538z M194.243,117.126c-14.335,0-26.447-8.512-26.447-18.588s12.111-18.588,26.447-18.588
	c14.335,0,26.448,8.512,26.448,18.588S208.578,117.126,194.243,117.126z"/>
<path d="M125.407,307.513c-22.856,0-41.449,15.069-41.449,33.591c0,18.522,18.594,33.591,41.449,33.591s41.449-15.069,41.449-33.591
	C166.856,322.582,148.262,307.513,125.407,307.513z M125.407,359.693c-14.335,0-26.447-8.512-26.447-18.588
	c0-10.077,12.111-18.588,26.447-18.588s26.447,8.512,26.447,18.588C151.854,351.181,139.742,359.693,125.407,359.693z"/>
<path d="M319.451,383.133c0,18.522,18.594,33.591,41.449,33.591s41.449-15.069,41.449-33.591c0-18.522-18.594-33.591-41.449-33.591
	S319.451,364.611,319.451,383.133z M387.348,383.133c0,10.076-12.111,18.588-26.447,18.588s-26.447-8.512-26.447-18.588
	c0-10.076,12.111-18.588,26.447-18.588S387.348,373.058,387.348,383.133z"/>
<path d="M228.73,383.485c-17.221,0-31.231,11.546-31.231,25.737s14.01,25.737,31.231,25.737s31.23-11.546,31.23-25.737
	S245.951,383.485,228.73,383.485z M228.73,419.959c-8.797,0-16.229-4.917-16.229-10.735s7.431-10.735,16.229-10.735
	c8.797,0,16.228,4.917,16.228,10.735S237.526,419.959,228.73,419.959z"/>
<path d="M357.567,135.737c0-14.191-14.01-25.737-31.231-25.737s-31.23,11.546-31.23,25.737s14.009,25.737,31.23,25.737
	S357.567,149.929,357.567,135.737z M310.108,135.737c0-5.819,7.431-10.735,16.228-10.735s16.229,4.916,16.229,10.735
	s-7.431,10.735-16.229,10.735C317.539,146.472,310.108,141.556,310.108,135.737z"/>
<path d="M122.688,204.895c0-14.191-14.009-25.737-31.23-25.737s-31.231,11.546-31.231,25.737c0,14.191,14.01,25.737,31.231,25.737
	S122.688,219.088,122.688,204.895z M75.23,204.895c0-5.819,7.431-10.735,16.229-10.735c8.797,0,16.228,4.917,16.228,10.735
	c0,5.819-7.431,10.735-16.228,10.735C82.662,215.631,75.23,210.715,75.23,204.895z"/>
<path d="M432.836,295.89c17.221,0,31.23-11.546,31.23-25.737s-14.009-25.737-31.23-25.737s-31.231,11.546-31.231,25.737
	C401.605,284.344,415.615,295.89,432.836,295.89z M432.836,259.417c8.797,0,16.228,4.917,16.228,10.735
	c0,5.819-7.431,10.735-16.228,10.735s-16.229-4.916-16.229-10.735C416.608,264.333,424.039,259.417,432.836,259.417z"/>
<g>
</g>
<g>
</g>
<g>
</g>
<g>
</g>
<g>
</g>
<g>
</g>
<g>
</g>
<g>
</g>
<g>
</g>
<g>
</g>
<g>
</g>
<g>
</g>
<g>
</g>
<g>
</g>
<g>
</g>
</svg>
